<svg id="menu" xmlns="http://www.w3.org/2000/svg" width="25" height="18.055" viewBox="0 0 25 18.055">
  <path id="Path_121" data-name="Path 121" d="M23.958,124.751H1.042a1.042,1.042,0,0,1,0-2.083H23.958a1.042,1.042,0,1,1,0,2.083Zm0,0" transform="translate(0 -114.682)" fill="#003049"/>
  <path id="Path_122" data-name="Path 122" d="M23.958,2.083H1.042A1.042,1.042,0,0,1,1.042,0H23.958a1.042,1.042,0,1,1,0,2.083Zm0,0" fill="#003049"/>
  <path id="Path_123" data-name="Path 123" d="M23.958,247.415H1.042a1.042,1.042,0,1,1,0-2.083H23.958a1.042,1.042,0,1,1,0,2.083Zm0,0" transform="translate(0 -229.36)" fill="#003049"/>
</svg>
