<svg xmlns="http://www.w3.org/2000/svg" width="40.5" height="36.945" viewBox="0 0 40.5 36.945">
  <g id="first-aid-kit" transform="translate(0.25 0.251)">
    <g id="Group_98" data-name="Group 98" transform="translate(12 13.666)">
      <g id="Group_97" data-name="Group 97" transform="translate(0 0)">
        <path id="Path_116" data-name="Path 116" d="M129.208,142.68h-3.264v-3.264a1.192,1.192,0,0,0-1.184-1.2h-4.712a1.192,1.192,0,0,0-1.192,1.192v3.264H115.6a1.192,1.192,0,0,0-1.2,1.184v4.712a1.192,1.192,0,0,0,1.192,1.192h3.264v3.256a1.192,1.192,0,0,0,1.184,1.2h4.7a1.192,1.192,0,0,0,1.192-1.192h0V149.76H129.2a1.192,1.192,0,0,0,1.2-1.184v-4.7A1.192,1.192,0,0,0,129.208,142.68Zm-.408,5.48h-3.656a.8.8,0,0,0-.8.8v3.656h-3.888V148.96a.8.8,0,0,0-.8-.8H116v-3.88h3.656a.8.8,0,0,0,.8-.8v-3.664h3.88v3.656a.8.8,0,0,0,.8.8H128.8Z" transform="translate(-114.4 -138.216)" stroke="#000" stroke-width="0.5"/>
      </g>
    </g>
    <g id="Group_100" data-name="Group 100" transform="translate(0 0)">
      <g id="Group_99" data-name="Group 99" transform="translate(0 0)">
        <path id="Path_117" data-name="Path 117" d="M34.321,31.838H27.539v-3.05a2.471,2.471,0,0,0-2.316-2.6q-.1,0-.2,0H14.979a2.445,2.445,0,0,0-2.517,2.387q-.005.106,0,.213V31.82H5.679C3.062,31.82,0,33.389,0,37.8V56.649c0,4.411,3.062,5.98,5.679,5.98H34.321c2.617,0,5.679-1.569,5.679-5.98V37.817C40,33.406,36.947,31.838,34.321,31.838Zm-20.214-3.05a.8.8,0,0,1,.881-.927H25.021a.8.8,0,0,1,.881.927V31.82H14.107ZM38.354,56.649c0,3.83-2.815,4.246-4.033,4.246H5.679c-1.21,0-4.033-.416-4.033-4.246V37.817c0-3.83,2.815-4.246,4.033-4.246H34.321c1.21,0,4.033.416,4.033,4.246V56.649Z" transform="translate(0 -26.184)" stroke="#000" stroke-width="0.5"/>
      </g>
    </g>
  </g>
</svg>
