<svg xmlns="http://www.w3.org/2000/svg" width="15" height="20" viewBox="0 0 15 20">
  <g id="padlock" transform="translate(-3)">
    <path id="Path_104" data-name="Path 104" d="M16.125,21.5H4.875A1.877,1.877,0,0,1,3,19.625v-8.75A1.877,1.877,0,0,1,4.875,9h11.25A1.877,1.877,0,0,1,18,10.875v8.75A1.877,1.877,0,0,1,16.125,21.5ZM4.875,10.25a.626.626,0,0,0-.625.625v8.75a.626.626,0,0,0,.625.625h11.25a.626.626,0,0,0,.625-.625v-8.75a.626.626,0,0,0-.625-.625Z" transform="translate(0 -1.5)"/>
    <path id="Path_105" data-name="Path 105" d="M15.375,8.75a.625.625,0,0,1-.625-.625V5a3.75,3.75,0,0,0-7.5,0V8.125a.625.625,0,0,1-1.25,0V5A5,5,0,0,1,16,5V8.125A.625.625,0,0,1,15.375,8.75Z" transform="translate(-0.5)"/>
    <path id="Path_106" data-name="Path 106" d="M11.667,16.333a1.667,1.667,0,1,1,1.667-1.667A1.668,1.668,0,0,1,11.667,16.333Zm0-2.083a.417.417,0,1,0,.417.417A.417.417,0,0,0,11.667,14.25Z" transform="translate(-1.167 -2.167)"/>
    <path id="Path_107" data-name="Path 107" d="M11.875,19.292a.625.625,0,0,1-.625-.625V16.375a.625.625,0,0,1,1.25,0v2.292A.625.625,0,0,1,11.875,19.292Z" transform="translate(-1.375 -2.625)"/>
  </g>
</svg>
