<svg id="profile" xmlns="http://www.w3.org/2000/svg" width="40" height="40" viewBox="0 0 40 40">
  <path id="Path_109" data-name="Path 109" d="M20,40a20,20,0,1,1,15.293-7.11,20.21,20.21,0,0,1-2.36,2.366A20.006,20.006,0,0,1,20,40ZM20,2.5A17.5,17.5,0,0,0,6.618,31.278,17.7,17.7,0,0,0,8.684,33.35a17.5,17.5,0,0,0,22.631,0,17.7,17.7,0,0,0,2.067-2.072A17.5,17.5,0,0,0,20,2.5Z" transform="translate(0 0)"/>
  <path id="Path_110" data-name="Path 110" d="M167.5,79a7.5,7.5,0,1,1,7.5-7.5A7.508,7.508,0,0,1,167.5,79Zm0-12.5a5,5,0,1,0,5,5A5.006,5.006,0,0,0,167.5,66.5Z" transform="translate(-147.5 -59)"/>
  <path id="Path_111" data-name="Path 111" d="M105.875,242.053a1.251,1.251,0,0,1-1.213-1.555,11.26,11.26,0,0,0-10.747-14h-.329a11.26,11.26,0,0,0-10.747,14,1.25,1.25,0,1,1-2.425.609A13.754,13.754,0,0,1,93.555,224h.39a13.76,13.76,0,0,1,13.142,17.107A1.251,1.251,0,0,1,105.875,242.053Z" transform="translate(-73.75 -206.5)"/>
</svg>
